<svg width="103" height="89" viewBox="0 0 103 89" fill="none" xmlns="http://www.w3.org/2000/svg">
<path d="M0 76.2857L66.6666 0L77.7778 12.7143L11.1111 89L0 76.2857Z" fill="#70DA1C"/>
<path d="M22.2222 76.2857L88.8889 0L100 12.7143L33.3334 89L22.2222 76.2857Z" fill="#CCF235"/>
<path d="M49.032 66H36.36L29.664 34.392L22.608 66H10.368L0.144 15.672L13.104 15.528L17.208 54.192L24.552 18.408H35.352L42.336 54.12L46.44 15.528L59.544 15.672L49.032 66Z" fill="#141414"/>
<path d="M100.454 17.4L98.1501 26.76C97.1901 26.424 96.0861 26.112 94.8381 25.824C93.5901 25.536 92.2941 25.296 90.9501 25.104C89.6061 24.912 88.2621 24.768 86.9181 24.672C85.5741 24.576 84.2781 24.528 83.0301 24.528C80.1981 24.528 78.0381 24.912 76.5501 25.68C75.0621 26.448 74.3181 27.648 74.3181 29.28C74.3181 30.144 74.5581 30.912 75.0381 31.584C75.5181 32.208 76.2861 32.784 77.3421 33.312C78.3981 33.84 79.7661 34.368 81.4461 34.896C83.1261 35.424 85.1421 36 87.4941 36.624C90.0381 37.248 92.2461 38.016 94.1181 38.928C96.0381 39.792 97.6221 40.824 98.8701 42.024C100.166 43.176 101.126 44.544 101.75 46.128C102.422 47.664 102.758 49.464 102.758 51.528C102.758 54.792 101.894 57.552 100.166 59.808C98.4381 62.064 95.8941 63.792 92.5341 64.992C89.1741 66.144 85.0461 66.72 80.1501 66.72C78.5181 66.72 76.8381 66.648 75.1101 66.504C73.3821 66.36 71.6301 66.168 69.8541 65.928C68.1261 65.64 66.4461 65.304 64.8141 64.92C63.1821 64.488 61.6461 64.008 60.2061 63.48L62.5101 54.192C63.9501 54.672 65.4381 55.104 66.9741 55.488C68.5101 55.872 70.0701 56.208 71.6541 56.496C73.2381 56.736 74.7981 56.928 76.3341 57.072C77.9181 57.216 79.4061 57.288 80.7981 57.288C82.9581 57.288 84.7101 57.12 86.0541 56.784C87.4461 56.4 88.4541 55.848 89.0781 55.128C89.7501 54.408 90.0861 53.52 90.0861 52.464C90.0861 51.552 89.7501 50.784 89.0781 50.16C88.4541 49.536 87.4941 48.96 86.1981 48.432C84.9021 47.856 83.2701 47.28 81.3021 46.704C79.3821 46.128 77.1501 45.456 74.6061 44.688C72.4461 43.968 70.5501 43.152 68.9181 42.24C67.3341 41.328 65.9901 40.296 64.8861 39.144C63.7821 37.944 62.9421 36.576 62.3661 35.04C61.8381 33.504 61.5741 31.776 61.5741 29.856C61.5741 27.696 61.9821 25.704 62.7981 23.88C63.6621 22.056 64.9341 20.472 66.6141 19.128C68.3421 17.784 70.5741 16.752 73.3101 16.032C76.0461 15.264 79.2861 14.88 83.0301 14.88C85.2381 14.88 87.4221 15 89.5821 15.24C91.7901 15.48 93.8301 15.792 95.7021 16.176C97.5741 16.56 99.1581 16.968 100.454 17.4Z" fill="#141414"/>
</svg>
